<svg xmlns="http://www.w3.org/2000/svg" xmlns:xlink="http://www.w3.org/1999/xlink" width="512" zoomAndPan="magnify" viewBox="0 0 384 383.999986" height="512" preserveAspectRatio="xMidYMid meet" version="1.0"><defs><clipPath id="322b3efc4c"><path d="M 102.835938 336 L 281.335938 336 L 281.335938 345.800781 L 102.835938 345.800781 Z M 102.835938 336 " clip-rule="nonzero"/></clipPath><clipPath id="22b6637e47"><path d="M 103 41.300781 L 281.335938 41.300781 L 281.335938 69 L 103 69 Z M 103 41.300781 " clip-rule="nonzero"/></clipPath></defs><rect x="-38.4" width="460.8" fill="#ffffff" y="-38.399999" height="460.799983" fill-opacity="1"/><rect x="-38.4" width="460.8" fill="#ffffff" y="-38.399999" height="460.799983" fill-opacity="1"/><path fill="#333333" d="M 251.644531 327.945312 C 251.644531 323.03125 247.546875 318.9375 242.632812 318.9375 L 141.210938 318.9375 C 136.296875 318.9375 132.203125 323.03125 132.203125 327.945312 Z M 251.644531 327.945312 " fill-opacity="1" fill-rule="nonzero"/><g clip-path="url(#322b3efc4c)"><path fill="#333333" d="M 272.125 336.953125 L 111.882812 336.953125 C 106.96875 336.953125 102.871094 341.050781 102.871094 345.964844 L 281.136719 345.964844 C 281.136719 341.050781 277.039062 336.953125 272.125 336.953125 Z M 272.125 336.953125 " fill-opacity="1" fill-rule="nonzero"/></g><path fill="#333333" d="M 155.46875 309.929688 C 168.246094 309.929688 178.570312 299.609375 178.570312 286.832031 L 178.570312 100.59375 C 178.570312 87.816406 168.246094 77.5 155.46875 77.5 C 142.6875 77.5 132.363281 87.816406 132.363281 100.59375 L 132.363281 286.832031 C 132.363281 299.609375 142.6875 309.929688 155.46875 309.929688 Z M 141.375 100.59375 C 141.375 92.894531 147.601562 86.507812 155.46875 86.507812 C 163.332031 86.507812 169.558594 92.730469 169.558594 100.59375 L 169.558594 286.832031 C 169.558594 294.53125 163.332031 300.917969 155.46875 300.917969 C 147.601562 300.917969 141.375 294.695312 141.375 286.832031 Z M 141.375 100.59375 " fill-opacity="1" fill-rule="nonzero"/><path fill="#333333" d="M 251.644531 286.339844 L 251.644531 101.085938 C 251.644531 88.144531 241.160156 77.5 228.050781 77.5 L 205.441406 77.5 L 205.441406 309.929688 L 228.050781 309.929688 C 240.996094 309.929688 251.644531 299.445312 251.644531 286.339844 Z M 242.632812 286.667969 C 242.632812 294.53125 236.242188 300.753906 228.542969 300.753906 L 214.617188 300.753906 L 214.617188 86.507812 L 228.542969 86.507812 C 236.40625 86.507812 242.632812 92.894531 242.632812 100.59375 Z M 242.632812 286.667969 " fill-opacity="1" fill-rule="nonzero"/><path fill="#333333" d="M 251.808594 68.488281 C 251.808594 68 251.808594 67.507812 251.808594 67.015625 C 251.808594 62.757812 248.367188 59.480469 244.273438 59.480469 L 141.210938 59.480469 C 136.296875 59.480469 132.203125 63.578125 132.203125 68.488281 L 178.40625 68.488281 C 183.320312 68.488281 187.417969 72.585938 187.417969 77.5 L 187.417969 309.765625 L 196.429688 309.765625 L 196.429688 77.5 C 196.429688 72.585938 200.523438 68.488281 205.441406 68.488281 Z M 251.808594 68.488281 " fill-opacity="1" fill-rule="nonzero"/><g clip-path="url(#22b6637e47)"><path fill="#333333" d="M 267.703125 41.300781 L 116.636719 41.300781 C 109.097656 41.300781 103.035156 47.523438 103.035156 54.894531 C 103.035156 62.265625 109.097656 68.488281 116.636719 68.488281 C 124.171875 68.488281 128.597656 63.738281 129.90625 57.679688 C 130.726562 53.585938 134.332031 50.472656 138.753906 50.472656 L 140.558594 50.472656 C 140.558594 50.472656 177.257812 50.472656 177.257812 50.472656 L 243.78125 50.472656 C 243.78125 50.472656 245.582031 50.472656 245.582031 50.472656 C 249.84375 50.472656 253.609375 53.585938 254.429688 57.679688 C 255.742188 63.902344 261.148438 68.488281 267.703125 68.488281 C 274.253906 68.488281 281.300781 62.429688 281.300781 54.894531 C 281.300781 47.359375 275.238281 41.300781 267.703125 41.300781 Z M 116.636719 61.609375 C 112.867188 61.609375 109.917969 58.664062 109.917969 54.894531 C 109.917969 51.128906 112.867188 48.179688 116.636719 48.179688 C 120.402344 48.179688 123.351562 51.128906 123.351562 54.894531 C 123.351562 58.664062 120.402344 61.609375 116.636719 61.609375 Z M 267.703125 61.609375 C 263.933594 61.609375 260.984375 58.664062 260.984375 54.894531 C 260.984375 51.128906 263.933594 48.179688 267.703125 48.179688 C 271.46875 48.179688 274.417969 51.128906 274.417969 54.894531 C 274.417969 58.664062 271.46875 61.609375 267.703125 61.609375 Z M 267.703125 61.609375 " fill-opacity="1" fill-rule="nonzero"/></g></svg>